<?xml version="1.0" encoding="UTF-8"?>
<svg width="752pt" height="752pt" version="1.1" viewBox="0 0 752 752" xmlns="http://www.w3.org/2000/svg">
 <path d="m455.09 428.09c25.77-34.93 32.055-80.551 16.695-121.15-15.363-40.602-50.27-70.637-92.707-79.762-42.438-9.1289-86.609 3.8984-117.3 34.59-30.691 30.695-43.719 74.867-34.59 117.3 9.125 42.438 39.16 77.344 79.762 92.707 40.598 15.359 86.219 9.0742 121.15-16.695l67.109 66.918c4.7852 4.7852 11.766 6.6562 18.305 4.9023 6.543-1.75 11.652-6.8594 13.402-13.402 1.7539-6.5391-0.11719-13.52-4.9023-18.305zm-192.75-75.77c0-23.867 9.4766-46.754 26.352-63.629s39.762-26.352 63.629-26.352c23.863 0 46.75 9.4766 63.625 26.352s26.355 39.762 26.355 63.629c0 23.863-9.4805 46.75-26.355 63.625s-39.762 26.355-63.625 26.355c-23.867 0-46.754-9.4805-63.629-26.355s-26.352-39.762-26.352-63.625z" fill="#b32e2e"/>
</svg>
